<?xml version="1.0" encoding="UTF-8"?>
<svg id="Calque_1" xmlns="http://www.w3.org/2000/svg" version="1.1" viewBox="0 0 500 500">
  <!-- Generator: Adobe Illustrator 29.2.1, SVG Export Plug-In . SVG Version: 2.1.0 Build 116)  -->
  <defs>
    <style>
      .st0 {
        font-family: SpecialElite-Regular, 'Special Elite';
        font-size: 6px;
      }
    </style>
  </defs>
  <path d="M270,98.4c-2.1,3.2-2.4,2.6,26.4,62.9l6.1,12.8v16.1c0,8.9-.3,15.8-.7,15.5-.3-.4-1-6.9-1.3-14.5-.7-13.2-.8-13.9-3.9-19l-3.3-5.2h-8.4c-9.8,0-8.3-1.1-21.3,15.5-9.1,11.5-12.1,14.6-12.1,12.3s7.6-12.6,14.8-21.3l5.1-6-21.6-.3c-20.7-.2-21.6-.2-23,1.8-1,1.3-2.5,2-4.9,2-4.4,0-6.4-3.4-4.5-7.6,1.1-2.4,1.5-2.5,5.4-1.9,7.6,1.3,67.7,1.7,67.7.5s-1.2-3.1-2.6-5.6l-2.6-4.4h-25.3c-21.2,0-25.5.2-26.5,1.5-1.6,2-3,1.9-3-.1s-.7-1.6-3.7-1.1c-2.1.3-4.7.9-5.9,1.2-4,1.2-7.3-5.2-4.2-8.3s6.2-1.4,7.6.8c1.6,2.7,6.2,2.7,6.2.1s1.1-5.2,2.1-4.5c.5.3.9,1.8.9,3.5v2.9h24.4c13.5,0,24.7-.4,25-.8.3-.5-.6-3.2-1.9-6l-2.4-5.2h-65.8l-2.1,2.3c-1.7,1.7-2.2,3.6-2.2,7.3v4.9l-14.9,15c-8.2,8.2-15.4,15.1-16,15.3-2.9,1,0-2.7,13.4-17.1,14.3-15.4,14.5-15.6,14.5-20.2,0-9.9,1.7-10.5,30.9-10.5s39.1-.8,39.1-2.1c0-2.6-5.3-3.8-22.1-4.9-35.2-2.2-60.8,3.5-83.8,18.7-18.7,12.4-39.7,37.4-50.1,59.6-8.9,19-15.8,45.2-18.1,69.1-1.6,16.4-.6,62.9,1.5,75.6,6.8,39.6,22.7,65.4,48.1,78.3,9.4,4.7,17.1,6.8,28.2,7.4,13,.7,20.2-.7,32-6.2,18-8.5,31.2-25.1,34.8-44s1.2-30.7-4-40.4c-7.4-13.5-22.7-25-36.7-27.5l-3.8-.7v6.1c0,4.5-.3,6.1-1.2,5.8-.7-.3-1.4-2-1.6-3.9-.5-6.7-1.1-7.9-3.8-7.9-4.2,0-14.6,3-18.4,5.3-5.8,3.5-15.1,12.9-17.5,17.7-9.3,18.7-3.1,40.8,14,49.8,4.2,2.2,6.3,2.6,13.1,2.7,7.2,0,8.6-.3,13-3,10.6-6.5,12.5-19.6,3.8-26.4-4.4-3.5-11.4-2.2-11.4,2s.4,2,2.9,1.4c2.3-.5,3.2-.2,4,1.4,1.6,2.9,1.4,3.9-1.4,6.6-1.8,1.9-3.5,2.5-6.9,2.5s-4.8-.4-7.5-3.7c-8.6-10.4,1.3-24.3,17.4-24.3h5.5v-11.1c0-10,.2-11,1.8-10.7,1.5.3,1.7,1.8,2,11.7l.3,11.4,4.6,5.1c6.8,7.5,8.6,12.4,8.1,21-.6,8.5-3.1,13.9-9.4,20.3-8.9,8.9-22.2,12.7-36,10.4-20.9-3.5-36.6-20-42.5-44.6-2.7-11.6-2.3-30.7.9-42.8,6.8-25.2,24.3-48.5,46-61.1,3.4-2,6.2-3.9,6.2-4,0-.2-1.1-2.4-2.5-4.7-1.4-2.4-2.5-4.7-2.5-5.2-.1-4.6,20.3,16.1,24.9,25.5,1.7,3.4,3.1,6.9,3.1,7.8,0,3,2.2,8,3.9,8.9,1,.6,3,.4,5.3-.4,5.6-1.9,10-7.6,11.3-14.8,1.4-7.4-4.3-16.7-10.2-16.7s-5.3-3.7-14.4-21.2c-3.4-6.6-7.7-13.5-9.4-15.4-4.5-4.8-10.5-4.8-20.1.1-11.6,5.8-19,12.8-40.2,37.7-1.9,2.3-1.8,8,.4,11.3,1.7,2.6,1.7,2.8-.2,6.3-1.5,2.8-1.8,5.2-1.7,11.1.4,10.3-.5,16.1-2.3,16.1s-1.4-2.2-1.4-11.5-.5-12.6-1.6-15.4c-1.4-3.6-1.4-4.1.5-7.7,1.2-2.1,2.1-5.5,2.1-7.4,0-3,1.6-5.4,11.6-17,17-19.9,22.9-25.6,30.4-29.3,5.7-2.8,7.4-3.2,14.7-3.2s8.4.2,11.1,2.8c1.7,1.6,6,8.6,9.8,15.5,3.7,7,7.5,14.1,8.6,15.8l1.8,3.2,7.8-2.4c4.2-1.2,13-3.7,19.5-5.5l11.8-3.2-2.9-3.1c-4.8-5.1-6.2-7.8-6.2-12.1,0-8.3,15.9-35.8,19.8-34.4.6.2-2.1,7.1-5.8,15.4-3.8,8.2-7.2,16.1-7.5,17.5-.4,1.8.3,3.8,2.5,7.2,5.4,8.1,20.6,23.3,32.8,32.7,6.4,5,14.6,11.6,18.1,14.6,7.2,6.1,10.2,6.8,14.5,3.4,2.1-1.7,4.3-5,4.3-8.9-.1-11.4-8.1-9.8-21.2-11.6-4.5-.6-7.3-8.7-19.4-19.7-7.3-6.6-13-12.5-12.8-13.1.7-2.1,3.9-1.9,7,.4l3,2.2,12.1-2.8c16.4-3.7,36.8-10.6,50.4-17.1,14.2-6.7,32.1-17.7,38.7-23.7,1.8-1.6-30.4-.2-37,1.7-8,2.2-17.6,8.1-25.4,15.5-5.7,5.6-9.1,7.5-9.1,5.3s6.8-9.7,11.2-13.3c5.6-4.7,13.8-9.3,21.4-12,4.8-1.8,8.9-2.3,22.4-2.6,9.1-.3,17.3-.9,18.3-1.4,4.4-2.4-.7-12.7-12.8-25.5l-6.4-6.9v5.6c-.1,3.1-.6,7.1-1.2,9-1.9,5.4-7.6,12.5-11.7,14.5-5.7,2.7-16.5,3-23.2.6-5.3-1.9-5.7-2.3-9.4-9.6-3.1-5.9-4-8.6-4-12.9v-5.4c-.1,0-13-.6-13-.6-7.1-.4-13.1-.9-13.3-1.1-.3-.3-.2-.9.2-1.5.4-.7,5.6-1.1,14.1-1.1s13.4-.2,13.5-1.8c.3-4.8-.3-5.5-9.8-10.2-5.6-2.8-8-5-5.4-5s9.7,3.3,13.7,6l4.4,3,6.4-4.3c3.6-2.3,6.5-4.4,6.5-4.7.1-.8-11.8-9.5-18.2-13.4-13.1-7.8-31.1-13.6-42.6-13.6s-5.3.4-6.6,2.4ZM281.5,107.5c0,.8-.4,1.5-.9,1.5-1.3,0-2.2-1.6-1.4-2.4s2.3-.6,2.3.9ZM286.5,107.5c0,.8-.7,1.5-1.5,1.5s-1.5-.7-1.5-1.5.7-1.5,1.5-1.5,1.5.7,1.5,1.5ZM295.5,107.3c0,.8-.3,1.7-.7,2-.9.9-3.4-1.3-2.7-2.4.8-1.4,3.4-1.1,3.4.4ZM306,109.4c3.6,1.5,4.7,3.6,2,3.6s-9.5-3.1-9.5-4.1,3.6-1.1,7.5.5ZM316.3,115.3c.3,1.6.1,1.7-1.7.7-2.5-1.3-2.8-3.3-.4-2.8,1,.2,1.9,1.1,2.1,2.1ZM322,117.8c0,1.8-2,1.5-2.3-.4-.3-1,.1-1.5,1-1.2.7.3,1.3,1,1.3,1.6ZM326.5,122.1c0,2.4-2.3,2.1-2.8-.4s.3-1.7,1.2-1.7,1.6.9,1.6,2.1ZM288.5,123.6c0,.8-.7,1.4-1.5,1.4-1.5,0-2.1-2.1-.9-3.3,1-.9,2.4.2,2.4,1.9ZM295.7,124.2c-1.5,1.5-2.6.4-1.8-1.8.5-1.3.9-1.5,1.8-.6s.9,1.5,0,2.4ZM304.2,122.6c.8,2.1-1.3,4.2-2.8,2.7s-.5-4.3,1.1-4.3,1.3.7,1.7,1.6ZM290.5,133.5c0,.8-.4,1.5-1,1.5s-1-.7-1-1.5.5-1.5,1-1.5,1,.7,1,1.5ZM315.5,133.5c0,1.2-1.9,1.5-11.5,1.5s-11.5-.4-11.5-.9c0-1.2,4.1-1.7,14.8-1.9,6.7-.2,8.2.1,8.2,1.3ZM201.1,136.5c.6,1.6-1.2,4.5-2.7,4.5s-3.1-3.9-2.4-5c1-1.5,4.5-1.2,5.1.5ZM245.5,141.4c0,.8-.4,1.7-.9,2.1-1.2.7-2.4-1.2-1.6-2.5.9-1.5,2.5-1.2,2.5.4ZM255,141.8c0,1.8-2,1.5-2.3-.4-.3-1,.1-1.5,1-1.2.7.3,1.3,1,1.3,1.6ZM264.5,142.6c0,.8-.4,1.4-1,1.4s-1-.9-1-2.1.5-1.7,1-1.4c.6.3,1,1.3,1,2.1ZM274,141.8c0,1.8-2,1.5-2.3-.4-.3-1,.1-1.5,1-1.2.7.3,1.3,1,1.3,1.6ZM188.5,149.2c0,5.4-.5,9.3-1.5,11.1-.8,1.6-5.7,7.5-10.8,13l-9.4,10.2-.7,7c-1,10.2-2.2,10.5-3.2.8-.8-7.6-.4-8.5,12.4-22.2l10.2-11.1v-8.5c0-6.9.3-8.5,1.5-8.5s1.5,1.6,1.5,8.2ZM198.5,148c0,2.7-2.7,3.7-4.7,1.7-2-1.9-.9-3.7,2.3-3.7s2.4.5,2.4,2ZM315.3,149.7c.3,1-1.7,1.3-7.7,1.3s-10.2-1-6.8-2.4c2.4-1,14-.1,14.5,1.1ZM177.2,151.6c1.5,2.4,1.5,2.9.2,5.3-1.8,3.3-6.7,4.1-8.6,1.5-1.6-2.2-1.7-6.6-.1-8.2s6.6-1.4,8.5,1.4ZM376.5,158.9c0,7.9-1.4,11.1-2.3,5.4-.4-2.1-.7-6.5-.7-9.8.1-5.5.2-5.8,1.5-4.1,1,1.3,1.5,4.3,1.5,8.5ZM213,155.2c-.8,1.3-5.6,6.7-10.5,12l-9,9.7v12c0,7-.4,12.2-1,12.6-1.5.9-1.8-.7-2.4-13.6l-.6-11.6,11.1-11.6c6.1-6.4,11.7-11.7,12.5-11.7,1.3,0,1.3.3-.1,2.2ZM309.2,164.1c-.5,8.4-1.1,10.9-2.1,9.8-.2-.2-.7-4.6-1-9.7-.7-9.1-.7-9.2,1.5-9.2s2.2.2,1.6,9.1ZM259.3,157.8c.2.7-.3,1.2-1.2,1.2s-1.6-.7-1.6-1.6c0-1.7,2.2-1.4,2.8.4ZM270.3,157.2c-.6,1.8-2.5,2-3.1.3-.5-1,0-1.5,1.4-1.5s1.9.5,1.7,1.2ZM280.5,156.9c0,.6-.4,1.3-1,1.6-.5.3-1-.1-1-.9s.5-1.6,1-1.6,1,.4,1,.9ZM163.9,163.2c1.3,1.9,1.4,2.5.2,4.3-1.9,2.9-7.2,3.3-8.1.5-.4-1.2-.4-3.2-.1-4.6.8-3.2,5.8-3.4,8-.2ZM320.1,162.1c.3.6,0,1.8-.9,2.6-1.8,1.8-3.7.9-3.7-1.8s3.4-2.7,4.6-.8ZM380.6,168.3c-.8.8-1.1.7-1.1-.4,0-2,1.3-3.4,1.8-1.9.3.7-.1,1.7-.7,2.3ZM369.5,167.5c0,.8-.7,1.5-1.5,1.5-1.6,0-2-1.2-.8-2.3,1.1-1.2,2.3-.8,2.3.8ZM320,170.9l2.4,1.8-2.8,2.7-2.8,2.7-2.9-2.5-2.9-2.6,2.5-2c3.1-2.4,3.6-2.4,6.5-.1ZM213.9,171.9c1.7,1.8,1.7,2.1.1,4.5-2.4,3.7-1.7,19.6,1.1,24.3,2.6,4.4,1.1,6.8-4.2,6.8s-3.9-.3-4.2-2.4c-.2-1.3.2-3.5,1-4.9,1.7-3.3,1.8-22.6.1-24.4-1.7-1.6-1.6-2.3.3-4.2s3.7-2,5.8.3ZM281.8,173.8c1.6,1.7,1.5,2-.8,4.2-2.4,2.3-2.5,2.3-4.5.5-2.5-2.2-2.6-4.1-.2-5.4,2.5-1.5,3.7-1.3,5.5.7ZM155.1,175.5c1.5,2.3,1.5,2.7-.5,5.8-1.9,3.2-2.1,4.9-2.1,22.6s-.3,19.7-1.7,22.4c-.9,1.8-6.3,8.6-12.1,15.2-14,16-14.5,17.3-14,33.9.2,10.6.7,13.6,2.1,15.8,1.8,2.6,1.8,2.8,0,6-1.4,2.7-1.8,6.2-2.1,18.5q-.4,15.3,2.2,18.4c2.8,3.3,2.8,6.3-.2,8.7-2.2,1.6-4.2,1.5-6.4-.5s-2.3-5.2-.3-7.9c2.1-2.8,2.2-33.1,0-36-1.7-2.3-1.9-5.6-.4-7.1s1.3-8.1,1.6-18.1l.6-17,13.4-15.6,13.5-15.7-.3-24.7c-.2-13.6,0-25.3.4-26,1.3-2,4.5-1.4,6.3,1.3ZM330.5,174c0,.5-.4,1-1,1s-1-.5-1-1,.5-1,1-1,1,.4,1,1ZM202.7,176.7c2.1,1.9,2.4,4,.6,4.5-.9.3-1.4,3.6-1.6,10.6-.3,7.9-.7,10.2-1.8,10.2s-1.4-2-1.4-9.6-.4-10.3-1-11.3c-.6-1.3-.5-2.4.6-3.9,1.8-2.6,2.2-2.7,4.6-.5ZM236.3,176.6c1.2.8,2.2,2.5,2.2,3.6,0,2.7-2.8,5.8-5.2,5.8s-5.8-3.4-5.8-5.5,3.5-5.5,5.3-5.5,2.3.7,3.5,1.6ZM251.2,176.6c.9,2.4-.9,5.2-8.7,13.8s-7.5,8.9-8,10.2c-1.2,3.1-3,3.1-3,0s1.9-4.7,4.3-7.6c6.7-8.2,8.7-11.2,8.1-12.2s-.3-2,0-3.4c.5-1.9,1.3-2.4,3.7-2.4s3.2.6,3.6,1.6ZM291.5,177.5c0,.8-.4,1.5-1,1.5s-1-.7-1-1.5.5-1.5,1-1.5,1,.7,1,1.5ZM330.5,179.8c0,.9-.5,2.4-1,3.2-.7,1.1-1,.5-1-2.3s.4-3.6,1-3.2c.6.3,1,1.4,1,2.3ZM143,182.2c.9,4.7.2,41.5-.8,42.4-.4.5-1.2.2-1.7-.6-1.1-1.6-1.4-40.9-.4-43.4,1-2.6,2.3-1.8,2.9,1.6ZM289.4,181.9c2.3,1.7,2.3,1.9.7,4.2-.9,1.4-1.6,4.3-1.6,7s-.3,8.1-.7,12.3c-.8,10.1-2.3,7.8-2.3-3.6s-.5-11-1.1-13.8c-.8-3.9-.8-5.4.1-6.5,1.6-1.9,2-1.9,4.9.4ZM319.5,184c2.5,2.5,2.5,3.2-.2,5.7l-2.3,2.1-3-2.3-2.9-2.4,2.4-2.6c2.8-3,3.4-3.1,6-.5ZM184.5,185.9c.7,1.5.5,2.4-.8,4.1-1.6,1.9-2.2,2.1-4,1.1-2.2-1.2-2.7-2.7-1.6-5.5.9-2.2,5.1-2,6.4.3ZM228.3,187.8c.2,1.3-.1,2.9-.7,3.6-.7.8-1.5,8.7-2,18.5-.4,9.4-1,17.3-1.3,17.6s-.7-7.4-1-17.1c-.4-10.9-1-18-1.7-18.7-1.2-1.2-1.5-5-.4-6.1s2.1-.6,3.8-.4c2.3.2,3.1.9,3.3,2.6ZM368,186c-.7,1.1-7.3,2.5-8.1,1.7-1.4-1.3,1-2.7,4.7-2.7s3.8.4,3.4,1ZM357.5,189.1c0,1-.7,1.9-1.5,1.9-1.5,0-2.1-3.1-.9-4.3,1.1-1,2.4.3,2.4,2.4ZM347.1,191.6c-.5,1.3-1,1.4-1.8.6s-.8-1.8-.4-2.8c.5-1.3,1-1.4,1.8-.6s.8,1.8.4,2.8ZM160.5,190.5c0,.8-.4,1.5-1,1.5s-1-.7-1-1.5.5-1.5,1-1.5,1,.7,1,1.5ZM279.9,191.3c.8,1.3.7,2-.3,2.6-1.9,1.2-4.1.3-4.1-1.8,0-3.5,2.5-3.9,4.4-.8ZM296.5,191.4c0,.8-.4,1.7-.9,2.1-1.2.7-2.4-1.2-1.6-2.5.9-1.5,2.5-1.2,2.5.4ZM135.5,214c0,17.1-.2,20-1.5,20s-1.5-2.9-1.5-20,.2-20,1.5-20,1.5,2.9,1.5,20ZM160.5,204c0,6-.4,10-1,10s-1-4-1-10,.4-10,1-10,1,4,1,10ZM348.5,196.5c0,.8-.9,1.5-2,1.5-2,0-2.6-1.1-1.3-2.3,1.2-1.3,3.3-.7,3.3.8ZM179.3,197.2c1.7,1.7,1.5,6.4-.4,8.2-3.4,3.4-9.4.9-9.4-3.9s.7-3.1,1.6-3.9c1.8-1.9,6.5-2.1,8.2-.4ZM245.9,197.9c1.6,1.8,1.6,2.2.2,5-1.1,2-1.6,5.7-1.6,11s-.4,8.2-.9,8.5c-1.1.7-2.1-5.2-2.1-12.7s-.4-6.6-1-7.6c-.6-1.3-.5-2.4.6-3.9,1.9-2.7,2.6-2.7,4.8-.3ZM296.5,197c0,.5-.7,1-1.5,1s-1.5-.5-1.5-1,.7-1,1.5-1,1.5.4,1.5,1ZM309.5,197.4c0,2.4-1.2,4.6-2.1,4-1.5-.9-1-5.4.6-5.4s1.5.6,1.5,1.4ZM338,197.1c.4.5.4,2.2,0,3.7-.5,2-.8,2.3-1.6,1.1-1.2-1.9-1.2-5.9,0-5.9s1.3.5,1.6,1.1ZM279.1,200.1c1.5,2.5-5,3.9-8.8,1.8-1.7-.9-1.8-1.3-.7-2,2-1.2,8.7-1.1,9.5.2ZM295.8,202.6c-.4,1-.9,1.2-1.5.6-1.2-1.2-.1-3.5,1.2-2.7.5.3.6,1.3.3,2.1ZM328.5,204.5c0,.8-.4,1.5-1,1.5s-1-.7-1-1.5.5-1.5,1-1.5,1,.7,1,1.5ZM233.5,205.5c0,.8-.4,1.5-1,1.5s-1-.7-1-1.5.5-1.5,1-1.5,1,.7,1,1.5ZM275.3,212.4c.5,3.8-1.3,5.6-2.2,2.2-.5-2.1-1.4-2.7-4.6-3.2-5.8-.9-4.9-2.6,1.3-2.2,4.9.3,5.2.5,5.5,3.2ZM234.5,211c0,.5-.7,1-1.5,1s-1.5-.5-1.5-1,.7-1,1.5-1,1.5.4,1.5,1ZM233.9,219.8c-1,6.9-2.4,7.5-2.4,1.1s.6-7.3,2.2-6.3c.5.3.6,2.7.2,5.2ZM127.4,220.1c1.3,2.3,1.2,3-.7,7.1-1.7,3.5-2.2,6.3-2.2,13.1s-.3,8.7-1.3,8.7-1.6-2.6-2-10.2c-.5-8.2-1-10.5-2.7-12.3-2.6-2.8-2.5-6,.3-8,3.1-2.2,6.9-1.5,8.6,1.6ZM218.5,218.9c0,1.4-1.8,2.3-3,1.6-.6-.4-.8-1.1-.5-1.6.8-1.2,3.5-1.2,3.5,0ZM266.5,222.1c0,2.4-.4,3.8-1,3.4-.5-.3-1-2.2-1-4.1s.5-3.4,1-3.4,1,1.8,1,4.1ZM192,220.3c2.1,1.6,1.5,6.1-1.1,7.1-3.9,1.5-7.3-4.1-4.2-7.2s3-1.5,5.3.1ZM180,223c1.8,2,1.8,2.1-.2,4.1s-2.4,1.9-4.2,1c-2.3-1.3-2.8-4-.9-5.9s3.2-1.5,5.3.8ZM217.5,224c0,.5-.4,1-1,1s-1-.5-1-1,.5-1,1-1,1,.4,1,1ZM169.5,238c0,8.4-1.2,19-2.1,19s-1.2-25.3-.2-26.3,2.3,1.8,2.3,7.3ZM197.9,232.9c1.6,1.7,1.6,2.1-.5,5.6-2,3.3-2.3,3.5-3,1.8-.4-1-1.4-2.5-2.3-3.2-1.5-1.3-1.5-1.6.5-3.8,2.7-2.8,3.1-2.8,5.3-.4ZM279.5,234.9c0,1.1-.4,2.2-.9,2.5-1.1.7-2-1.4-1.3-3.2.7-1.9,2.2-1.4,2.2.7ZM187.5,235c0,.5-1.5,1-3.3,1-3.6,0-5.8,1.4-7.5,4.5-1,1.9-1.1,1.9-1.8.2-.3-1-.2-2.9.4-4.3,1-2.1,1.8-2.4,6.7-2.4s5.5.4,5.5,1ZM114.5,253.6c.3,11.3.9,17.7,1.8,19.2,1.1,1.9,1.1,3-.3,6.5-1.4,3.7-1.6,8.3-1.2,33.2.2,16,.7,30.2,1.2,31.7.6,2.4.4,2.9-1.6,3.7-3.9,1.4-6.3-.4-5.3-4.2,1.3-5.7,1.6-61.9.3-64.4-.7-1.3-.9-3.5-.4-5.5.4-1.8,1-11,1.5-20.3.4-9.4.8-17.2.9-17.3.1-.2.7-.2,1.4,0,.9.3,1.3,5.1,1.7,17.4ZM160.3,240.2c1.6,1.6,1.5,5-.3,7.4-1.9,2.5-1.9,8.8,0,10.4,2.3,1.9,1.9,7.7-.6,9-3,1.7-6.2.8-7.8-2.2-1.4-2.4-1.3-2.9,1.2-6.5,3.3-4.7,3.4-6.5.5-11.1l-2.1-3.5,2.7-2.4c3-2.6,4.6-2.9,6.4-1.1ZM205.5,246.1c0,2-.4,2.9-1.2,2.7-1.5-.5-2.2-3.3-1.4-5.4.9-2.4,2.6-.6,2.6,2.7ZM177.5,248.5c0,.8-.7,1.5-1.5,1.5s-1.5-.7-1.5-1.5.7-1.5,1.5-1.5,1.5.7,1.5,1.5ZM146,273.4c-.4,4.7-1.1,8.6-1.6,8.6-1.1,0-1.2-25.3-.1-26.4,1.4-1.5,2.4,9.2,1.7,17.8ZM183.5,335.5c0,9.7-.7,13.8-2.1,12.9-1-.6-1.2-22.7-.2-23.7,1.5-1.5,2.3,2.2,2.3,10.8ZM193.5,326.5c0,.8-.7,1.5-1.5,1.5s-1.5-.7-1.5-1.5.7-1.5,1.5-1.5,1.5.7,1.5,1.5ZM216.9,329.1c1,5.2.7,18.7-.5,19.4-.6.4-1.3.4-1.7,0-.9-.9-1.6-16.9-.8-20,.9-3.4,2.2-3.1,3,.6ZM173.1,331.7c-1.1,1.1-1.9-.6-1.1-2.4q.8-1.7,1.2,0c.3,1,.2,2.1-.1,2.4ZM201.5,331.6c0,.8-.4,1.4-1,1.4s-1-.9-1-2.1.5-1.7,1-1.4c.6.3,1,1.3,1,2.1ZM192.9,332.1c-.3.5-1,.7-1.5.3-.5-.3-.7-1-.3-1.5.3-.5,1-.7,1.5-.3.5.3.7,1,.3,1.5ZM229.2,337.4c-1,2.6-3.7,3.1-5.8.9q-1.9-1.9.2-4.2l2.2-2.3,2,2c1.1,1.2,1.7,2.7,1.4,3.6ZM175.6,336.6l2.4,2.5-2.5,1.9c-3.2,2.5-4.3,2.5-6.5,0-1.5-1.7-1.6-2.2-.4-3.7,3.1-4,3.9-4,7-.7ZM193.5,336.5c0,.8-.7,1.5-1.5,1.5s-1.5-.7-1.5-1.5.7-1.5,1.5-1.5,1.5.7,1.5,1.5ZM201.5,336.5c0,.8-.7,1.5-1.5,1.5-1.6,0-2-1.2-.8-2.3,1.1-1.2,2.3-.8,2.3.8ZM193.5,343.1c0,.5-.7.9-1.5.9-1.5,0-2-1.2-.9-2.3s2.4.1,2.4,1.4ZM201.5,342.5c0,.8-.4,1.5-1,1.5s-1-.7-1-1.5.5-1.5,1-1.5,1,.7,1,1.5ZM232.3,350.1c.6,13.9-2.1,16.3-3.1,2.8-.6-8.7-.2-11.2,1.7-10.6.6.2,1.2,3.4,1.4,7.8ZM225.4,346.2c-.1,1.3-.5,3.4-.9,4.8-.7,2-.8,1.6-.9-2.3-.1-2.6.4-4.7.9-4.7s1,1,.9,2.2ZM164.5,350c0,4.2-1.4,5.4-2.5,2-.7-2.3.2-6,1.6-6s.9,1.8.9,4ZM171,351.5c0,1-.6,2-1.2,2.2-.8.3-1.3-.5-1.3-2.2s.5-2.5,1.3-2.3c.6.3,1.2,1.3,1.2,2.3ZM239.5,369.6c0,14.4-.3,18.5-1.2,18.2-2.5-.8-2.1-36.8.3-36.8s.9,8,.9,18.6ZM111.5,354.5c0,.8-.4,1.5-1,1.5s-1-.7-1-1.5.5-1.5,1-1.5,1,.7,1,1.5ZM117.9,357.1c.7,4.4-.1,10.9-1.4,10.9s-2-6.1-2-11.3,2.5-5,3.4.4ZM123.8,354.5c-.4,1.5-3.6,1.2-4.1-.3s.3-1.3,1.9-1c1.3.1,2.3.7,2.2,1.3ZM130.5,353.9c0,1.4-1.8,2.3-3,1.6-.6-.4-.8-1.1-.5-1.6.8-1.2,3.5-1.2,3.5,0ZM164.2,358.6c-.9.9-2.8-.6-2.1-1.8.4-.6,1-.6,1.7.1s.8,1.3.4,1.7ZM171.3,357.2c-.6,1.8-2.8,2.1-2.8.4s.7-1.6,1.6-1.6,1.4.5,1.2,1.2ZM111.5,359c0,.5-.4,1-1,1s-1-.5-1-1,.5-1,1-1,1,.4,1,1ZM164.5,361.5c0,.8-.4,1.5-.9,1.5-1.3,0-2.2-1.6-1.4-2.4s2.3-.6,2.3.9ZM170.7,361.5c0,.5-.5,1.1-1.1,1.3s-1.1-.4-1.1-1.3.5-1.5,1.1-1.3,1.1.8,1.1,1.3ZM231.5,368c0,2.7-.4,5-1,5s-1-2.3-1-5,.5-5,1-5,1,2.2,1,5ZM171,366c-.3.5-1,1-1.6,1s-.9-.5-.9-1,.7-1,1.6-1,1.2.4.9,1ZM164.5,367c0,.5-.4,1-.9,1s-1.3-.5-1.6-1c-.3-.6.1-1,.9-1s1.6.4,1.6,1ZM130.1,372.5c.3,1.3.1,3.2-.5,4.3-.6,1.2-1.1,3.7-1.1,5.6,0,4.7-1.7,4.6-2.6-.2-.4-2-1.3-4.9-2.1-6.4-1.2-2.5-1.1-3,.7-4.8s4.8-1.7,5.6,1.5ZM164.5,371.5c0,.8-.4,1.5-.9,1.5-1.3,0-2.2-1.6-1.4-2.4s2.3-.6,2.3.9ZM203.5,375c0,.5-.7,1-1.6,1s-1.2-.5-.9-1c.3-.6,1-1,1.6-1s.9.4.9,1ZM175.6,376.6c1.7,2.1,0,4.9-3.1,4.9s-4.8-2.8-3.1-4.9c.8-.9,2.1-1.6,3.1-1.6s2.3.7,3.1,1.6ZM232.3,376.2c-.3.7-1.1,1.3-1.8,1.3s-1.5-.6-1.7-1.3c-.3-.7.4-1.2,1.7-1.2s2,.5,1.8,1.2ZM122.5,382c0,1.6-.4,3-1,3s-1-1.4-1-3,.5-3,1-3,1,1.3,1,3ZM183.7,384.2c-1.5,1.5-2.7-1.4-1.7-4,.6-1.5.8-1.5,1.8.6.7,1.6.7,2.6-.1,3.4ZM231.8,382.1c-1.7,1.7-3.7.1-2.2-1.7.8-1,1.5-1.2,2.3-.4s.7,1.3-.1,2.1ZM136.5,385.7c0,3.2-.3,6.8-.6,8-1.2,4.3-2.4,1.1-2.4-6.3s.3-7.4,1.5-7.4,1.5,1.3,1.5,5.7ZM194.9,381.9c1.3,1.4,1.4,2.1.6,2.6-.7.4-1.6.2-2-.6-.7-1-1.2-1-2.3-.1-1.9,1.6-2.8.4-1.4-1.9,1.5-2.4,2.9-2.4,5.1,0ZM231.5,385.5c0,.8-.4,1.5-1,1.5s-1,1.7-1,3.7-.7,4.5-1.7,5.5c-1.6,1.8-1.7,1.8-4-.4-1.3-1.2-2.3-2.6-2.3-3.1,0-1.1,8.1-8.7,9.2-8.7s.8.7.8,1.5ZM122.5,387.4c0,.3-.4.8-1,1.1-.5.3-1,.1-1-.4s.5-1.1,1-1.1,1,.2,1,.4ZM128.5,390.9c0,2.6-1.6,3.5-2.4,1.5s-.7-3.4.9-3.4,1.5.9,1.5,1.9ZM141.3,393.7c-.3,5.5-2.1,6.5-2.6,1.5-.4-3.9.3-6.2,1.8-6.2s1,1.8.8,4.7ZM128.5,397.6c0,.8-.4,1.2-1,.9-.5-.3-1-1-1-1.6s.5-.9,1-.9,1,.7,1,1.6ZM218.3,404c-.4,6-2.2,7.1-2.6,1.6-.4-4.3.2-6.6,1.8-6.6s1,1.9.8,5ZM151.7,402.5c1.4,3.2-.5,5.7-4.1,5.3-3.2-.4-3.9-3.2-1.5-5.9,2.3-2.6,4.2-2.4,5.6.6ZM141.3,405.4c-.2,1.5-.7,2.8-1.3,2.9-1.2.2-1.9-3.8-1-6,.9-2.5,2.7-.1,2.3,3.1ZM226.2,404.2c-.3.8-.6.5-.6-.6-.1-1.1.2-1.7.5-1.3.3.3.4,1.2.1,1.9ZM159.5,406.5c0,.8-.7,1.5-1.5,1.5-1.6,0-2-1.2-.8-2.3,1.1-1.2,2.3-.8,2.3.8ZM208.5,410.7c0,3.5-1.4,5.2-2.4,2.7-.8-2.1-.8-6.9.1-7.7,1.1-1.1,2.3,1.5,2.3,5ZM226.2,409.2c-.3.7-.5.2-.5-1.2s.2-1.9.5-1.3c.2.7.2,1.9,0,2.5ZM201.3,412.2c2.3,2.3,1.2,4.4-5,9.6-6.4,5.3-8.6,5.5-4.9.4,1.1-1.6,2.3-4.1,2.7-5.8,1.2-5.2,4.4-7,7.2-4.2ZM150.5,414c0,.5-.7,1-1.5,1s-1.5-.5-1.5-1,.7-1,1.5-1,1.5.4,1.5,1ZM187.5,414c0,.6-6.2,1-16.6,1s-16.3-.3-15.9-1c.4-.6,7-1,16.6-1s15.9.4,15.9,1ZM219.3,416.6c.4,2.5-2,4.7-4.2,3.8-1.6-.6-2.2-4.5-.9-5.8s4.8-.1,5.1,2ZM208.5,419c0,.5-.4,1-1,1s-1-.5-1-1,.5-1,1-1,1,.4,1,1ZM159,420c.4.6-.8,1-3,1s-3.4-.4-3-1c.3-.6,1.7-1,3-1s2.7.4,3,1ZM171,420c.4.6-.8,1-3,1s-3.4-.4-3-1c.3-.6,1.7-1,3-1s2.7.4,3,1ZM186,420c.4.6-1.3,1-4.5,1s-4.9-.4-4.5-1c.3-.6,2.4-1,4.5-1s4.2.4,4.5,1Z"/>
  <path d="M171.8,156.5c0,.8.5,1.5,1,1.5s1-.7,1-1.5-.4-1.5-1-1.5-1,.7-1,1.5Z"/>
  <path d="M122.8,340c0,.5.5,1,1,1s1-.5,1-1-.4-1-1-1-1,.4-1,1Z"/>
  <path d="M232.3,182c-.3.5.1,1,.9,1s1.6-.5,1.6-1-.4-1-.9-1-1.3.4-1.6,1Z"/>
  <path d="M174.4,202.8c-.3.6-.1,1.4.5,1.7,1.5,1,2.5-.3,1.2-1.6s-1.3-.7-1.7-.1Z"/>
  <path d="M121.8,224.4c0,.9.7,1.6,1.6,1.6s1.4-.5,1.2-1.2c-.6-1.8-2.8-2.1-2.8-.4Z"/>
  <path d="M188.8,225.5c0,.8.5,1.5,1,1.5s1-.7,1-1.5-.4-1.5-1-1.5-1,.7-1,1.5Z"/>
  <path d="M155.3,263.9c-.7,1.2,1.2,2.4,2.5,1.6,1.1-.7.4-2.5-1-2.5s-1.1.4-1.5.9Z"/>
  <path d="M171.8,381c0,.5.5,1,1,1s1-.5,1-1-.4-1-1-1-1,.4-1,1Z"/>
  <path d="M215.8,420.1c0,.5.5.7,1,.4.6-.3,1-.8,1-1.1s-.4-.4-1-.4-1,.5-1,1.1Z"/>
  <path d="M230.3,116c-1.2,2,.4,5.7,2.7,6.3,3.5,1,4.5-.9,2.2-4s-3.9-3.9-4.9-2.3Z"/>
  <path d="M244.2,116.4c-.3.9-.3,2.7,0,4.1.5,2,1.3,2.5,3.6,2.5s3,0,1.6-2.8-2.2-3.4-3-4.1c-1.3-1.1-1.7-1.1-2.2.3Z"/>
  <path d="M216.8,119.4c0,3.8,1.5,4.8,5.5,3.8l2.7-.8-2.7-3.2c-3.5-4.2-5.5-4.2-5.5.2Z"/>
  <path d="M257.2,118.4c-1.3,3.3,0,5.1,3.9,5.4,4.4.4,4.6-.4,1.2-4.1-2.9-3-4.3-3.4-5.1-1.3Z"/>
  <path d="M203.2,120.2c.3,1.3.6,3.1.6,4.2s.5,1.7,3.2,1.2c4.4-.9,4.5-1.2,1.3-4.6-3.5-3.6-6-4-5.1-.8Z"/>
  <path d="M189.9,125.2c.5,1.7,1.3,3.6,1.7,4,1.3,1.3,6.2-.1,6.2-1.7s-4.8-5.5-7.1-5.5-1.6.4-.8,3.2Z"/>
  <path d="M177.3,128.1c-.4.5-.1,2.4.6,4.1,1.1,2.6,1.6,2.9,4.2,2.4,4.4-.9,4.5-1.5.9-4.7-3.5-3.1-4.7-3.5-5.7-1.8Z"/>
  <path d="M337.8,131.1c-7.9,3.2-13,10.6-13,18.9,0,12.6,8.7,21.3,21.3,21.3s13.1-3.6,17-11.2c4.2-8.5,3-17.3-3.3-24-5-5.2-15.5-7.6-22-5ZM354.1,137.5c4,2.7,6.7,7.1,6.7,10.6s-.5,1.5-3-1.9c-6.9-9.5-17.6-9.6-22.5-.2-2.1,4.1-1.9,6.7,1.1,11.7,1.4,2.5,2.3,4.7,2.1,5-.3.2-2.2-1.1-4.3-3-3.4-3.1-3.8-4-4.2-9.3-.3-5,0-6.3,1.9-8.8,5.5-7,15.2-8.8,22.2-4.1ZM351.3,144.5c3.3,3.3,3.3,7.8-.1,11.2s-13.4,1-13.4-6,8.5-10.3,13.5-5.2Z"/>
  <path d="M164.9,134.9c-1.1.7-1,1.3.4,3.5,2,3,3.3,3.2,6.1,1.1,1.9-1.4,1.8-1.5-.6-3.5-2.8-2.2-3.8-2.4-5.9-1.1Z"/>
  <path d="M152.4,143.3c-1.6,1.1-1.5,1.5,1.3,4.1,2.8,2.7,3,2.7,5.5,1.1,3.3-2.2,3.3-2.7-.3-4.8-3.5-2-4.2-2.1-6.5-.4Z"/>
  <path d="M219.8,150c0,.5.5,1,1.1,1s.7-.5.4-1c-.3-.6-.8-1-1.1-1s-.4.4-.4,1Z"/>
  <path d="M141.8,153.5c-1.7,2-.6,4.3,2.5,5.1,2.4.6,5.5-.9,5.5-2.7s-5.1-3.9-6.3-3.9-1,.7-1.7,1.5Z"/>
  <path d="M131.1,165.1c-2,2-1.6,3.2,1.6,5.1,2.8,1.6,3,1.5,5.2-.8,2.6-2.8,1.9-4.1-2.6-4.9-1.8-.4-3.5-.1-4.2.6Z"/>
  <path d="M221.5,166.7c-1.2,1.1-.8,2.3.8,2.3s1.5-.7,1.5-1.5c0-1.6-1.2-2-2.3-.8Z"/>
  <path d="M121.3,179c-2.1,2.3-2.1,2.2,2.2,4.4q3.2,1.6,4.8-1.4c1.4-2.7,1.4-3-.4-4-2.9-1.5-4.6-1.2-6.6,1Z"/>
  <path d="M113.4,192.6c-2.4,2.4-1.9,4.2,1.5,4.9,2.3.5,3.4.3,4.4-1.2,2-2.6,1.8-4-.7-4.7-3.2-.8-3.5-.8-5.2,1Z"/>
  <path d="M104.4,210.9c-1.8,3.4-1.3,4.1,3,4.1s3.4-.5,4.3-3.1c.6-1.8,1.1-3.4,1.1-3.5,0-.2-1.6-.4-3.5-.4-2.8,0-3.7.5-4.9,2.9Z"/>
  <path d="M101.2,224.8c-1.3.9-3.7,5.2-3.2,5.8.3.2,1.8.7,3.5,1,2.7.5,3.1.3,4.2-2.7.6-1.7,1.1-3.6,1.1-4,0-1.1-4.1-1.2-5.6-.1Z"/>
  <path d="M96.1,240.8c-.7.4-1.6,2.2-1.9,4-.6,3-.5,3.2,2.4,3.2s5.2-2.2,5.2-5.9-3.2-2.9-5.7-1.3Z"/>
  <path d="M93.1,256.7c-.7.2-1.3,1.7-1.3,3.3,0,2.9,1.3,4,4.2,3.2,1.5-.4,2.8-3,2.8-6s-3.3-1.5-5.7-.5Z"/>
  <path d="M260.3,258.1c-13.1,1.1-23.3,2.8-24.1,4-.7,1.1.3,7.9,1.5,9.7s4.3.9,17.7-.3c9.3-.8,22.2-1.5,28.7-1.5s11.7-.3,11.7-.8c0-.8-9.6-7.7-14.4-10.4-3.4-1.9-6-2-21.1-.7Z"/>
  <path d="M359.7,274.3c.3,1,.9,3.1,1.2,4.6.8,3.7,3.4,5.3,11.3,6.7,10.1,1.8,25.7,6.5,40.9,12.5,18.2,7.2,21.1,7.2,15.6,0-5.1-6.7-32.8-18.5-55.2-23.5-11.8-2.6-14.8-2.6-13.8-.3Z"/>
  <path d="M193.8,273.6c-18.4,6.2-36.5,17.1-42.9,25.7-4.5,6.1-9.5,14.6-8.9,15.2s4.8-2.6,10.3-6.2c12-7.8,30.6-17,43.3-21.4,5.2-1.8,9.6-3.8,9.9-4.5.6-1.7-1.5-9-3-10.2-.9-.8-3.3-.4-8.7,1.4Z"/>
  <path d="M92.2,272.8c-.6.4-1.4,1.9-1.8,3.4-.6,2.6-.4,2.8,2.4,2.8s3-.4,3-2.5,0-2.8.1-3.3c0-1-2.4-1.3-3.7-.4Z"/>
  <path d="M262.8,274.9c-2.3.7-2.2.9,2,2,7,1.8,12.9,4.1,20.2,7.7,11.1,5.6,16.7,4,9.3-2.5-6.4-5.5-11.1-7.3-20.5-7.7s-9.6,0-11,.5Z"/>
  <path d="M265.1,290.6c.3,1.1,1.5,5.2,2.6,9.3,4,14.4,2.3,14.8-4.4,1.1-2.7-5.5-5.4-9.9-6-9.7-.5.2-2,2.1-3.2,4.3-6.3,11,.3,27.5,14.1,35.4,2.8,1.7,5.6,3,6.1,3s2.5-2.4,4.2-5.3c6.3-10.7,7-24.8,1.5-31.6-3.4-4.1-7.2-6.6-12.1-7.6-3-.6-3.3-.5-2.8,1.1Z"/>
  <path d="M307.1,293.7c-1.3.2-2.3.7-2.3,1s3.6,4.4,8.1,9.1c7.6,8.2,17.9,22.2,17.9,24.4s-4.1-1.7-18.8-14.6c-7.4-6.5-13.9-11.5-14.5-11.3-.7.2-1.6,2.6-2.1,5.3-1.2,6.6.6,16.9,4.3,24.2,3.5,6.9,11.9,15.1,18.6,18.2,7.6,3.4,27.3,8.1,32.5,7.8l4.5-.3v-13.5c-.1-10.9-.5-14.9-2.3-20.5-3.4-11.1-12.2-21.9-22-26.9-4.7-2.4-18-4-23.9-2.9Z"/>
  <path d="M397.1,303.2c3,4,5.7,9.2,5.7,11s-2.6-1.3-5.8-4.5c-3.2-3.1-6.1-5.7-6.4-5.7s-1,1.6-1.4,3.6c-1.9,10.2,8.2,21,20.3,21.7l4.8.2v-8.6c0-7.7-.3-9-2.8-12.8-3.5-5.2-8.1-8.1-13-8.1h-3.8l2.4,3.2Z"/>
  <path d="M88.8,332.2c-6.6,4.1-29.5,20.7-33.7,24.5l-4.2,3.8,2.3,7.8c1.3,4.2,2.6,8,2.9,8.3s2.1-.8,3.9-2.6c4.3-4.1,26.1-20.5,31.5-23.7,4.1-2.4,4.3-2.7,4.2-7.1,0-6.4-1.2-12.5-2.4-12.8-.6-.2-2.6.6-4.5,1.8Z"/>
  <path d="M294.7,60.8c-7.1,2.4-11.9,4.1-33.1,11.3-5.4,1.8-13.9,4.7-18.9,6.4-5,1.7-12.4,4.2-16.5,5.6-4,1.4-7.5,2.5-7.6,2.6-.1,0,0,.2.5.5,22.9,12.5,30.2,16.5,30.3,16.6s0,.6-.2,1.2c-.3,1.5-.4,7-.2,14.5,0,3.2,0,6.1,0,6.5,0,.6-.2.9-.6,1.4-1.6,1.9-2.1,5-1.3,7.7.2.7.6,1.6,1,2l.5.7.6,5.4c.3,3,.6,5.5.6,5.5s0,0,.1,0c.1-.1.1,1.2,0,5.1,0,6.4-.3,9.6-1.4,23.7-.3,4.1-.5,7.4-.7,11.6,0,1.9,0,2,.3,3,.5,1.2,1.2,2,2.3,2.6,1.2.7,3.6.7,5.1,0,2.1-1,3.9-2.8,4.8-5,.3-.8.4-1.1.3-3,0-3.9-.9-9.8-3.7-25.8-1.9-10.9-2.3-13.1-2.2-13.5,0-.2-.2-2.7-.5-5.5l-.6-5.2.4-1.1c.8-2,.8-4,.2-6-.3-1-1.3-2.4-1.9-3-.4-.4-.5-.5-.4-.9,0-.3,0-4.1-.1-8.4-.2-6.1-.2-8.4,0-9.8,0-1.1.2-2,.3-2.1s2.8,1.3,6.2,3.1c3.3,1.8,6.7,3.7,7.5,4.1,1.2.6,1.4.8,1.4,1.2s-.2,5.8-.4,12.3c-.6,18.4-.6,17.8-.3,19.9.8,6.7-1.7-16.6,1.7-13.9,1.2,1-5.8,1.3-1.6,2.6,14.3,4.6,23.1,8.5,37.5,3.6,7-2.4-40.6,0-37.5-3.6,2.5-2.9,79.1-1.8,79.6-7.3-2.3-18.5-1.3-10.4,0-3s.7,11.5,0,3c-.6-8.5-1.2-15.7-1.2-16,0-.6,0-.6,2-1.8,1.1-.6,11-6.5,21.9-13,11-6.5,20.1-11.9,20.3-12,.2-.1.3-.3.3-.3,0,0-10.7-3.2-23.7-7.1-13-3.9-32.6-9.7-43.6-13-11-3.3-20.1-6-20.1-5.9,0,0-3.4,1.2-7.5,2.6Z"/>
  <path d="M383,238.2c-1.8-6.7-5-13.9-9.4-21.1-2.6-4.2-3.9-6-4.9-6.9-.4-.4-1.1-.8-1.6-.9-1.4-.3-2.7.2-6,2.3-.7.4-1.6,1-2,1.4-.4.3-1,.7-1.2.8-.8.4-1.8,1.1-2.2,1.7-.3.4-2.2,1.8-2.7,2.1-1,.5-2.1,1.3-2.6,2-.4.6-1.3,1.3-2,1.5-1.1.4-2.3,1.2-3,1.9-.4.4-.4.5-.4.8s0,.2-1,1c-.8.7-1.1.9-1.6,1.1-1.1.5-2,1.2-2.7,1.9-.2.3-.4.4-.4.6,0,.2-.1.3-1,1-.8.6-1.1.8-1.3.9-1.2.4-2.7,1.4-3.4,2.2-.2.2-.2.3-.2.5v.2s-1.5,1.2-1.5,1.2c-1.5,1.2-1.6,1.3-2.2,1.5-1.1.5-2.1,1.1-2.8,1.9-.4.4-.5.6-.5.9s0,.2-1.8,1.7c-2.8,2.3-5.8,4.8-6.3,5.2-1,.9-1.2,1.7-.8,2.5,0,.1.9,1.1,1.8,2.2s1.7,1.9,1.7,1.9c0,0-1.3,1-2,1.4-.5.4-1.9,1.2-2.3,1.4-.2,0-.3.2-.4.2,0,0,.9.2,1.8.3h.6s-.2.4-.2.4c-.1.2-.3.5-.4.7-.2.4-.7,1.4-.6,1.3,0,0,2.7-1.9,4.1-2.9.5-.4,1-.7,1-.7,0,0,.8.9,7.1,8.3,4.5,5.2,9.2,10.5,11.8,13.3,1.9,2,4.7,4.8,5,4.9.2.1.5,0,.8-.2.2-.3.3-.5.3-.9,0-.3,0-.3.2-.4.3-.2,1.4-.4,2-.4,1.7,0,3.7.3,6.6,1.2l.5.2.8.9c.4.5.8,1,.8,1s0,0,.1,0c.1-.1.7-1.1,2.7-4.8,9.7-18,16.9-30.4,21.3-36.6l.7-.9v-.3c-.1-.2-.3-.7-.4-1.2ZM378.5,236.9c-.1,1.5.2-1.3,0,0l-7.6,1.8,7.6-1.8c-3.1,4.8-15.9,21.2-21.5,31.2-1.7,3.1-2.3.8-2.5.8-.2,0-3.7-2.7-4.2-2.6h-.4s-1.7-1.9-1.7-1.9c-3.4-4-7.5-8.8-11.9-13.8l-2.3-2.6,1.1-1.2c9-10.5,16.1-18,23.7-25.2,1.8-1.7,4.8-4.5,4.8-4.4,0,0,.3.4.6,1,3.2,5.1,12.5,14,14.2,18.7.2.5-3.2-1.3-3.2-1.2,0,0,3.3.8,3.2,1.2ZM366.3,216s0,0,0-.2c0-.4-.4-1-.6-1.3-.5-.6-1.3-1-2.3-1.1-2.2-.3-5.2.6-6.7,2.2-.3.3-.4.3-.4.3-.1-.2.7-.9,1.6-1.5,1-.6,1.6-.8,2.9-1.1,1.3-.3,1.9-.3,2.9,0,.6.1.8.2,1.2.5.6.4,1.1.8,1.3,1.4.2.4.3.9.2.9ZM362.4,219.8c0,0-.1,0-.2-.4-.2-.7-.6-1.2-1.3-1.6-2.3-1.4-6.9-.6-9.3,1.6-.2.2-.3.3-.4.4,0,.1-.3.2-.3,0,0-.3,1.3-1.3,2.3-1.9,2-1,4.4-1.4,6.3-1,1.3.3,2.2.9,2.7,1.9.2.4.3.9.2.9ZM358.1,224c-.1,0-.2,0-.3-.5-.3-.7-.9-1.3-1.6-1.8-.6-.3-1-.5-1.7-.6-1.1-.2-2.2-.2-3.5,0-1.9.3-3.4,1-4.5,2-.7.6-.6.6-.7.5-.1-.1-.1-.2.3-.6.7-.7,1.6-1.2,2.7-1.7.7-.3,2.1-.6,2.9-.7,2.5-.3,4.7.4,5.8,1.6.4.4.7,1,.8,1.4,0,.3,0,.3,0,.3ZM353.4,228.6c-.1.2-.3,0-.4-.3-.8-1.9-3-2.9-5.9-2.9-.8,0-2.4.3-3.1.5-1.4.5-2.7,1.2-3.5,2.1-.2.2-.4.3-.5.2,0-.1,0-.3.6-.9.7-.6,1.5-1.1,2.6-1.6.5-.2.8-.3,1.8-.5s1.3-.3,1.9-.3c3,0,5.2.9,6.2,2.7.3.6.4.7.2.9ZM347.8,233.9c-.2,0-.2,0-.5-.6-.4-.8-1.4-1.8-2.4-2.2-1.3-.6-2.7-.9-4.3-.9-.7,0-2.4.3-3.1.6-1.1.4-2,1-2.8,1.7-.5.4-.6.5-.7.2s0-.2.3-.5c1.7-1.7,4.6-2.6,7.5-2.4,1.8.1,3.6.8,4.7,1.8.7.6,1.3,1.5,1.4,2,0,.2,0,.2,0,.3ZM355.8,279.3c-2.4-.7-4.5-1.1-6.2-.9-1.2,0-2,.3-2.7.9-.2.2-.5.3-.5.3s-.2-.2-.4-.4c-.2-.2-1.8-2.1-3.6-4.2-1.8-2-3.7-4.2-4.1-4.7-.5-.5-2-2.3-3.4-3.9s-3.1-3.6-3.8-4.4c-.7-.8-2.6-3-4.3-5-1.7-1.9-3.1-3.5-3.1-3.5s.2-.2.5-.5c.6-.5,1.7-1.9,1.9-2.3v-.3c.1,0-.9-1.1-.9-1.1-.6-.6-1-1.1-1-1.1,0,0,0,.2,0,.4,0,.7-.2,1.2-1,2-.4.4-1.1,1-1.2,1,0,0-2.4-2.8-2.6-3-.5-.7-.2-1.4,1-2.3.6-.4.9-.6,1.6-.7,1.9-.4,4.1.6,7,3.1,2,1.8,5.2,5.1,8.5,8.8,3.2,3.7,8.4,9.7,11.3,13.1,2.4,2.8,7.6,9,7.6,9.1,0,0-.3,0-.6-.2ZM341.6,239.8c-.2.2-.3.2-.6-.3-1.1-2.2-4.1-3.6-7.4-3.5-.9,0-2.3.3-3,.6-1.1.4-2.1,1-2.9,1.8-.2.2-.5.4-.5.4-.2,0-.3,0-.3-.2,0-.3,1.3-1.4,2.3-1.9.8-.4,1.5-.7,2.6-.9,1.5-.3,2.8-.3,4.4,0,1.9.4,3.5,1.3,4.6,2.5.3.4.5.6.8,1.1.1.3.2.3,0,.5Z"/>
  <text class="st0" transform="translate(355.4 229.3) rotate(50) scale(.9 1)"><tspan x="0" y="0">Caméléon </tspan><tspan x="-.9" y="7.2">Solutions</tspan><tspan x="-1.9" y="14.4">Learning</tspan></text>
</svg>